<svg width="20" height="20" viewBox="0 0 20 20" fill="none" xmlns="http://www.w3.org/2000/svg">
<path d="M10 3C13.866 3 17 6.13401 17 10C17 13.866 13.866 17 10 17C6.13401 17 3 13.866 3 10C3 6.13401 6.13401 3 10 3ZM12.7842 5.2002C12.5081 5.20024 12.2842 5.42408 12.2842 5.7002V6.51172C10.7206 5.36068 8.5519 5.52381 7.16113 7.00293C5.61339 8.64914 5.61335 11.3059 7.16113 12.9521C8.72537 14.6158 11.2746 14.6157 12.8389 12.9521C13.7423 11.9912 14.1152 10.6904 13.9697 9.4541C13.9374 9.17985 13.6883 8.98334 13.4141 9.01562C13.1399 9.048 12.9443 9.2971 12.9766 9.57129C13.0901 10.5368 12.7964 11.5379 12.1104 12.2676C10.941 13.5109 9.05893 13.5109 7.88965 12.2676C6.70379 11.0063 6.70385 8.94876 7.88965 7.6875C8.8661 6.64922 10.3391 6.47898 11.4795 7.1748H10.9277C10.6517 7.17498 10.4277 7.39877 10.4277 7.6748C10.4281 7.95057 10.6519 8.17463 10.9277 8.1748H12.7842C13.0601 8.17479 13.2839 7.95067 13.2842 7.6748V5.7002C13.2842 5.42406 13.0603 5.20021 12.7842 5.2002Z" fill="currentColor"/>
</svg>
