<svg xmlns="http://www.w3.org/2000/svg" width="20" height="20" viewBox="0 0 20 20" fill="none">
    <path d="M4.78105 3.8201L4.41898 3.47527L4.41898 3.47527L4.78105 3.8201ZM15.2189 3.8201L14.8569 4.16492L14.8569 4.16493L15.2189 3.8201ZM4.78105 16.1799L5.14312 15.8351L5.14311 15.835L4.78105 16.1799ZM13.3556 10.4386L13.8207 10.622L13.3556 10.4386ZM14.6444 10.4386L15.1095 10.2551L15.1095 10.2551L14.6444 10.4386ZM15.3591 12.2507L15.8242 12.0672L15.8242 12.0672L15.3591 12.2507ZM15.7493 12.6409L15.9328 12.1758L15.9328 12.1758L15.7493 12.6409ZM17.5615 13.3556L17.7449 12.8905L17.7449 12.8905L17.5615 13.3556ZM17.5615 14.6444L17.7449 15.1095L17.7449 15.1095L17.5615 14.6444ZM15.7493 15.3591L15.9327 15.8242L15.9328 15.8242L15.7493 15.3591ZM15.3591 15.7493L15.8242 15.9328L15.8242 15.9327L15.3591 15.7493ZM14.6444 17.5615L15.1095 17.7449L15.1095 17.7449L14.6444 17.5615ZM13.3556 17.5615L12.8905 17.7449L12.8905 17.7449L13.3556 17.5615ZM12.6409 15.7493L13.106 15.5659L13.106 15.5659L12.6409 15.7493ZM12.2507 15.3591L12.0672 15.8242L12.0672 15.8242L12.2507 15.3591ZM10.4386 14.6444L10.2551 15.1095L10.2551 15.1095L10.4386 14.6444ZM10.4386 13.3556L10.622 13.8207L10.622 13.8207L10.4386 13.3556ZM12.2507 12.6409L12.4341 13.106L12.4341 13.106L12.2507 12.6409ZM12.6409 12.2507L12.1758 12.0672L12.1758 12.0672L12.6409 12.2507ZM7 6.375C6.72386 6.375 6.5 6.59886 6.5 6.875C6.5 7.15114 6.72386 7.375 7 7.375V6.375ZM13.125 7.375C13.4011 7.375 13.625 7.15114 13.625 6.875C13.625 6.59886 13.4011 6.375 13.125 6.375V7.375ZM7 9C6.72386 9 6.5 9.22386 6.5 9.5C6.5 9.77614 6.72386 10 7 10V9ZM10.5 10C10.7761 10 11 9.77614 11 9.5C11 9.22386 10.7761 9 10.5 9V10ZM4.5 8.6C4.5 7.26659 4.50096 6.31446 4.59358 5.59114C4.68466 4.8798 4.85655 4.46582 5.14312 4.16492L4.41898 3.47527C3.92449 3.99448 3.70586 4.65052 3.60168 5.46414C3.49904 6.26577 3.5 7.29354 3.5 8.6H4.5ZM5.14311 4.16493C5.42641 3.86747 5.81103 3.69164 6.47717 3.5976C7.16029 3.50117 8.06143 3.5 9.33333 3.5V2.5C8.09107 2.5 7.1066 2.49883 6.33738 2.60742C5.55118 2.71841 4.91674 2.95263 4.41898 3.47527L5.14311 4.16493ZM9.33333 3.5H10.6667V2.5H9.33333V3.5ZM10.6667 3.5C11.9386 3.5 12.8397 3.50117 13.5228 3.5976C14.189 3.69164 14.5736 3.86747 14.8569 4.16492L15.581 3.47528C15.0833 2.95263 14.4488 2.71841 13.6626 2.60742C12.8934 2.49883 11.9089 2.5 10.6667 2.5V3.5ZM14.8569 4.16493C15.1434 4.46583 15.3153 4.87981 15.4064 5.59114C15.499 6.31446 15.5 7.26659 15.5 8.6H16.5C16.5 7.29354 16.501 6.26577 16.3983 5.46413C16.2941 4.65051 16.0755 3.99448 15.581 3.47527L14.8569 4.16493ZM10.6667 16.5H9.33333V17.5H10.6667V16.5ZM9.33333 16.5C8.06143 16.5 7.16029 16.4988 6.47717 16.4024C5.81104 16.3084 5.42641 16.1325 5.14312 15.8351L4.41897 16.5247C4.91673 17.0474 5.55117 17.2816 6.33738 17.3926C7.1066 17.5012 8.09107 17.5 9.33333 17.5V16.5ZM5.14311 15.835C4.85655 15.5342 4.68467 15.1202 4.59358 14.4089C4.50096 13.6855 4.5 12.7334 4.5 11.4H3.5C3.5 12.7064 3.49904 13.7342 3.60168 14.5359C3.70586 15.3495 3.92449 16.0055 4.41899 16.5247L5.14311 15.835ZM4.5 11.4V8.6H3.5V11.4H4.5ZM13.8207 10.622C13.8849 10.4593 14.1151 10.4593 14.1793 10.622L15.1095 10.2551C14.7124 9.2483 13.2875 9.24829 12.8905 10.2551L13.8207 10.622ZM14.1793 10.622L14.8939 12.4341L15.8242 12.0672L15.1095 10.2551L14.1793 10.622ZM14.8939 12.4341C15.0151 12.7415 15.2585 12.9848 15.5659 13.106L15.9328 12.1758C15.8831 12.1562 15.8438 12.1169 15.8242 12.0672L14.8939 12.4341ZM15.5659 13.106L17.378 13.8207L17.7449 12.8905L15.9328 12.1758L15.5659 13.106ZM17.378 13.8207C17.5407 13.8849 17.5407 14.1151 17.378 14.1793L17.7449 15.1095C18.7517 14.7124 18.7517 13.2875 17.7449 12.8905L17.378 13.8207ZM17.378 14.1793L15.5659 14.8939L15.9328 15.8242L17.7449 15.1095L17.378 14.1793ZM15.5659 14.8939C15.2585 15.0151 15.0151 15.2585 14.8939 15.5659L15.8242 15.9327C15.8438 15.8831 15.8831 15.8438 15.9327 15.8242L15.5659 14.8939ZM14.8939 15.5659L14.1793 17.378L15.1095 17.7449L15.8242 15.9328L14.8939 15.5659ZM14.1793 17.378C14.1151 17.5407 13.8849 17.5407 13.8207 17.378L12.8905 17.7449C13.2875 18.7517 14.7124 18.7517 15.1095 17.7449L14.1793 17.378ZM13.8207 17.378L13.106 15.5659L12.1758 15.9328L12.8905 17.7449L13.8207 17.378ZM13.106 15.5659C12.9848 15.2585 12.7415 15.0151 12.4341 14.8939L12.0672 15.8242C12.1168 15.8438 12.1562 15.8831 12.1758 15.9328L13.106 15.5659ZM12.4341 14.8939L10.622 14.1793L10.2551 15.1095L12.0672 15.8242L12.4341 14.8939ZM10.622 14.1793C10.4593 14.1151 10.4593 13.8849 10.622 13.8207L10.2551 12.8905C9.24829 13.2875 9.2483 14.7124 10.2551 15.1095L10.622 14.1793ZM10.622 13.8207L12.4341 13.106L12.0672 12.1758L10.2551 12.8905L10.622 13.8207ZM12.4341 13.106C12.7415 12.9848 12.9848 12.7415 13.106 12.4341L12.1758 12.0672C12.1562 12.1169 12.1169 12.1562 12.0672 12.1758L12.4341 13.106ZM13.106 12.4341L13.8207 10.622L12.8905 10.2551L12.1758 12.0672L13.106 12.4341ZM7 7.375H13.125V6.375H7V7.375ZM7 10H10.5V9H7V10Z"
          fill="currentColor"/>
</svg>