<svg width="20" height="20" viewBox="0 0 20 20" fill="none" xmlns="http://www.w3.org/2000/svg">
<path fill-rule="evenodd" clip-rule="evenodd" d="M10 17C13.8659 17 17 13.8659 17 9.99999C17 6.13399 13.8659 3 10 3C6.13399 3 3 6.13399 3 9.99999C3 13.8659 6.13399 17 10 17ZM7.61006 7.61006C7.2 8.02011 7.2 8.68005 7.2 9.99999C7.2 11.32 7.2 11.9799 7.61006 12.3899C8.02012 12.8 8.68006 12.8 10 12.8C11.32 12.8 11.9799 12.8 12.3899 12.3899C12.8 11.9799 12.8 11.32 12.8 9.99999C12.8 8.68005 12.8 8.02011 12.3899 7.61006C11.9799 7.19999 11.32 7.19999 10 7.19999C8.68006 7.19999 8.02012 7.19999 7.61006 7.61006Z" fill="currentColor"/>
</svg>
