<svg xmlns="http://www.w3.org/2000/svg" width="20" height="20" viewBox="0 0 20 20" fill="none">
    <path d="M12.8 12.8H12.3V13.3H12.8V12.8ZM7.2 7.2H6.7V7.7H7.2V7.2ZM12.3 10.63V13.57H13.3V10.63H12.3ZM12.3 13.57C12.3 14.7457 12.0618 15.4386 11.6502 15.8502C11.2386 16.2618 10.5457 16.5 9.37 16.5V17.5C10.6443 17.5 11.6664 17.2482 12.3573 16.5573C13.0482 15.8664 13.3 14.8443 13.3 13.57H12.3ZM9.37 16.5H6.43V17.5H9.37V16.5ZM6.43 16.5C5.25431 16.5 4.56141 16.2618 4.1498 15.8502C3.7382 15.4386 3.5 14.7457 3.5 13.57H2.5C2.5 14.8443 2.7518 15.8664 3.4427 16.5573C4.13359 17.2482 5.15569 17.5 6.43 17.5V16.5ZM3.5 13.57V10.63H2.5V13.57H3.5ZM3.5 10.63C3.5 9.45431 3.7382 8.76141 4.1498 8.3498C4.56141 7.9382 5.25431 7.7 6.43 7.7V6.7C5.15569 6.7 4.13359 6.9518 3.4427 7.6427C2.7518 8.33359 2.5 9.35568 2.5 10.63H3.5ZM6.43 7.7H9.37V6.7H6.43V7.7ZM9.37 7.7C10.5457 7.7 11.2386 7.9382 11.6502 8.3498C12.0618 8.76141 12.3 9.45431 12.3 10.63H13.3C13.3 9.35568 13.0482 8.33359 12.3573 7.6427C11.6664 6.9518 10.6443 6.7 9.37 6.7V7.7ZM16.5 6.43V9.37H17.5V6.43H16.5ZM16.5 9.37C16.5 10.5457 16.2618 11.2386 15.8502 11.6502C15.4386 12.0618 14.7457 12.3 13.57 12.3V13.3C14.8443 13.3 15.8664 13.0482 16.5573 12.3573C17.2482 11.6664 17.5 10.6443 17.5 9.37H16.5ZM13.57 12.3H12.8V13.3H13.57V12.3ZM13.3 12.8V10.63H12.3V12.8H13.3ZM9.37 6.7H7.2V7.7H9.37V6.7ZM7.7 7.2V6.43H6.7V7.2H7.7ZM7.7 6.43C7.7 5.25431 7.9382 4.56141 8.3498 4.1498C8.76141 3.7382 9.45431 3.5 10.63 3.5V2.5C9.35568 2.5 8.33359 2.7518 7.6427 3.4427C6.9518 4.13359 6.7 5.15569 6.7 6.43H7.7ZM10.63 3.5H13.57V2.5H10.63V3.5ZM13.57 3.5C14.7457 3.5 15.4386 3.7382 15.8502 4.1498C16.2618 4.56141 16.5 5.25431 16.5 6.43H17.5C17.5 5.15569 17.2482 4.13359 16.5573 3.4427C15.8664 2.7518 14.8443 2.5 13.57 2.5V3.5Z"
          fill="currentColor"/>
    <path d="M5.69995 14.4321L7.41235 9.5H8.62573L10.3416 14.4321H9.25464L8.88892 13.2358H7.14917L6.78345 14.4321H5.69995ZM7.98999 10.4844L7.38501 12.4634H8.65308L8.05151 10.4844H7.98999Z"
          fill="currentColor"/>
    <path d="M13.2821 6.432L10.8189 6.432C10.979 6.83704 11.1719 7.21589 11.3978 7.56856C11.071 7.4084 10.682 7.30309 10.2257 7.24751C10.1038 6.98749 9.99058 6.71566 9.88597 6.432H8.87595V5.613H11.634V4.5H12.495V5.613H15.288V6.432L14.2705 6.432C13.9819 7.22781 13.6141 7.92081 13.167 8.511C13.0294 8.69255 12.8842 8.86579 12.7312 9.03071C12.8939 9.15625 13.0648 9.27468 13.244 9.386C13.8646 9.76867 14.588 10.0533 15.414 10.24C15.3486 10.3053 15.2763 10.3893 15.197 10.492C15.1223 10.5947 15.05 10.6973 14.98 10.8C14.91 10.9073 14.854 11.0007 14.812 11.08C14.0447 10.8831 13.3712 10.6067 12.7915 10.2511C12.7723 9.83274 12.7196 9.4624 12.6304 9.13706C12.6066 9.05018 12.5803 8.96651 12.5512 8.88599C12.4665 8.65111 12.3592 8.44307 12.2279 8.26046C12.2908 8.18707 12.3518 8.11191 12.411 8.035C12.7615 7.57543 13.0519 7.04109 13.2821 6.432Z"
          fill="currentColor"/>
</svg>