<svg width="20" height="20" viewBox="0 0 20 20" fill="none" xmlns="http://www.w3.org/2000/svg">
  <path
    d="M3.00061 3L17.0006 17M5.64801 5.6474C4.6724 6.15184 3.89455 6.96943 3.4393 7.96895C2.98405 8.96846 2.8778 10.0919 3.1376 11.1591C3.3974 12.2262 4.00819 13.1751 4.87194 13.8535C5.73568 14.5319 6.8023 14.9005 7.90061 14.9H13.8506C14.1606 14.9002 14.4689 14.8547 14.7655 14.7649M16.673 13.15C16.9113 12.6697 17.0231 12.1365 16.9977 11.601C16.9723 11.0654 16.8107 10.5452 16.528 10.0895C16.2454 9.63392 15.8512 9.25798 15.3826 8.99731C14.9141 8.73665 14.3868 8.5999 13.8506 8.6H12.5976C12.3298 7.70349 11.8113 6.90225 11.1031 6.2908C10.3949 5.67934 9.52659 5.28316 8.60061 5.149"
    stroke="currentColor" stroke-linecap="round" stroke-linejoin="round" />
</svg>