<svg width="20" height="20" viewBox="0 0 20 20" fill="none" xmlns="http://www.w3.org/2000/svg">
<path d="M10 3C11.8565 3 13.6374 3.73705 14.9502 5.0498C16.2629 6.36256 17 8.14348 17 10C17 11.8565 16.2629 13.6374 14.9502 14.9502C13.6374 16.2629 11.8565 17 10 17C8.14348 17 6.36256 16.2629 5.0498 14.9502C3.73705 13.6374 3 11.8565 3 10C3 8.14348 3.73705 6.36256 5.0498 5.0498C6.36256 3.73705 8.14348 3 10 3ZM10.3535 6.84668C10.1583 6.65163 9.84169 6.65154 9.64648 6.84668L7.54688 8.94629C7.35168 9.14149 7.35181 9.45804 7.54688 9.65332C7.74215 9.8484 8.05871 9.84852 8.25391 9.65332L9.5 8.40723V12.7998C9.50007 13.0758 9.72408 13.2996 10 13.2998C10.276 13.2997 10.4999 13.0758 10.5 12.7998V8.40625L11.7471 9.65332L11.8252 9.71777C12.0193 9.8458 12.2833 9.82413 12.4541 9.65332C12.6246 9.48252 12.6455 9.21931 12.5176 9.02539L12.4541 8.94629L10.3535 6.84668Z" fill="currentColor"/>
</svg>
