<svg xmlns="http://www.w3.org/2000/svg" width="20" height="21" viewBox="0 0 20 21" fill="none">
  <path d="M5.21139 6.3437C5.21139 7.12535 5.5219 7.87498 6.07461 8.42769C6.62732 8.9804 7.37695 9.29091 8.1586 9.29091C8.94025 9.29091 9.68988 8.9804 10.2426 8.42769C10.7953 7.87498 11.1058 7.12535 11.1058 6.3437C11.1058 5.56205 10.7953 4.81241 10.2426 4.2597C9.68988 3.70699 8.94025 3.39648 8.1586 3.39648C7.37695 3.39648 6.62732 3.70699 6.07461 4.2597C5.5219 4.81241 5.21139 5.56205 5.21139 6.3437Z" fill="#3267D1"/>
  <path d="M3.00098 14.4493C3.00098 14.8363 3.13438 15.2195 3.39358 15.5771C3.65277 15.9347 4.03268 16.2596 4.51161 16.5333C4.99054 16.8069 5.55911 17.024 6.18486 17.1721C6.81061 17.3203 7.48129 17.3965 8.1586 17.3965C8.83591 17.3965 9.50659 17.3203 10.1323 17.1721C10.7581 17.024 11.3267 16.8069 11.8056 16.5333C12.2845 16.2596 12.6644 15.9347 12.9236 15.5771C13.1828 15.2195 13.3162 14.8363 13.3162 14.4493C13.3162 14.0622 13.1828 13.679 12.9236 13.3214C12.6644 12.9638 12.2845 12.639 11.8056 12.3653C11.3267 12.0916 10.7581 11.8745 10.1323 11.7264C9.50659 11.5783 8.83591 11.5021 8.1586 11.5021C7.48129 11.5021 6.81061 11.5783 6.18486 11.7264C5.55911 11.8745 4.99054 12.0916 4.51161 12.3653C4.03268 12.639 3.65277 12.9638 3.39358 13.3214C3.13438 13.679 3.00098 14.0622 3.00098 14.4493Z" fill="#3267D1"/>
  <path d="M16.9992 14.449C16.9992 15.6699 15.4994 16.6595 13.6683 16.6595C14.2078 16.0697 14.5787 15.3296 14.5787 14.4501C14.5787 13.5695 14.2069 12.8287 13.6664 12.2386C15.4975 12.2386 16.9992 13.2282 16.9992 14.449Z" fill="#3267D1"/>
  <path d="M14.7888 6.34442C14.7888 7.56519 13.7992 8.55483 12.5784 8.55483C12.3122 8.55483 12.057 8.50777 11.8207 8.42153C12.1692 7.80843 12.3683 7.09927 12.3683 6.34359C12.3683 5.58848 12.1695 4.8798 11.8214 4.26702C12.0575 4.18096 12.3125 4.13401 12.5784 4.13401C13.7992 4.13401 14.7888 5.12364 14.7888 6.34442Z" fill="#3267D1"/>
</svg>