<svg xmlns="http://www.w3.org/2000/svg" width="64" height="64" viewBox="0 0 64 64" fill="none">
  <path
    d="M24.5 44.5H19.5C16.1848 44.5 13.0054 43.183 10.6612 40.8388C8.31696 38.4946 7 35.3152 7 32C7 28.6848 8.31696 25.5054 10.6612 23.1611C13.0054 20.8169 16.1848 19.5 19.5 19.5M39.5 19.5H44.5C46.8214 19.5 49.0969 20.1464 51.0716 21.3668C53.0463 22.5873 54.6421 24.3335 55.6803 26.4098C56.7185 28.4861 57.1579 30.8105 56.9495 33.1226C56.741 35.4346 55.8928 37.6429 54.5 39.5M22 32H32M7 7L57 57"
    stroke="var(--icon-tertiary)" stroke-width="2.5" stroke-linecap="round" stroke-linejoin="round" />
</svg>