<svg width="20" height="20" viewBox="0 0 20 20" fill="none" xmlns="http://www.w3.org/2000/svg">
<path d="M3 5.8C3 4.2536 4.2536 3 5.8 3C7.3464 3 8.6 4.2536 8.6 5.8V14.2C8.6 15.7464 7.3464 17 5.8 17C4.2536 17 3 15.7464 3 14.2V5.8Z" stroke="currentColor"/>
<path d="M8.60002 7.36977L10.9196 5.05021C12.0131 3.95674 13.7859 3.95674 14.8794 5.05021C15.9728 6.14367 15.9728 7.91653 14.8794 9.01003L8.1145 15.7749" stroke="currentColor"/>
<path d="M5.79993 17H14.1999C15.7463 17 16.9999 15.7464 16.9999 14.2C16.9999 12.6537 15.7463 11.4 14.1999 11.4H12.4499" stroke="currentColor"/>
<path d="M6.49998 14.2C6.49998 14.5866 6.18657 14.9 5.79998 14.9C5.41338 14.9 5.09998 14.5866 5.09998 14.2C5.09998 13.8134 5.41338 13.5 5.79998 13.5C6.18657 13.5 6.49998 13.8134 6.49998 14.2Z" stroke="currentColor"/>
</svg>
