<svg width="20" height="20" viewBox="0 0 20 20" fill="none" xmlns="http://www.w3.org/2000/svg">
<path d="M16 8.6C16 5.96013 16 4.64021 15.2189 3.8201C14.4379 3 13.1808 3 10.6667 3H9.33333C6.81917 3 5.5621 3 4.78105 3.8201C4 4.64021 4 5.96013 4 8.6V11.4C4 14.0398 4 15.3598 4.78105 16.1799C5.5621 17 6.81917 17 9.33333 17H11" stroke="currentColor" stroke-linecap="round"/>
<path d="M8.66113 11C9.53711 11 10.0908 11.5332 10.0908 12.3564C10.0908 13.2324 9.52832 13.7217 8.61133 13.7217H7.9668V14.5068C7.9668 14.8379 7.79102 15.0283 7.48047 15.0283C7.17285 15.0283 7 14.8408 7 14.5068V11.6621C7 11.1846 7.17578 11 7.63281 11H8.66113ZM16.9082 11C17.1309 11 17.292 11.1641 17.292 11.3926C17.292 11.6182 17.1309 11.7764 16.9082 11.7764H15.5283V12.7373H16.7588C16.9902 12.7373 17.1426 12.8896 17.1426 13.1152C17.1426 13.3408 16.9873 13.4932 16.7588 13.4932H15.5283V14.5068C15.5283 14.8408 15.3584 15.0283 15.0537 15.0283C14.7402 15.0283 14.5586 14.835 14.5586 14.5068V11.5537C14.5586 11.1963 14.7549 11 15.1182 11H16.9082ZM12.168 11C13.3457 11 13.9756 11.6973 13.9756 12.998C13.9756 14.3018 13.3457 14.999 12.168 14.999H11.1631C10.7969 14.999 10.5977 14.8057 10.5977 14.4453V11.5537C10.5977 11.1934 10.7969 11 11.1631 11H12.168ZM11.5674 14.2285H12.0186C12.6836 14.2285 12.9854 13.8477 12.9854 12.998C12.9854 12.1514 12.6836 11.7676 12.0186 11.7676H11.5674V14.2285ZM7.96973 13.001H8.40918C8.91016 13.001 9.13281 12.8369 9.13281 12.374C9.13281 11.9756 8.91309 11.7471 8.51758 11.7471H7.96973V13.001Z" fill="currentColor"/>
</svg>
