<svg xmlns="http://www.w3.org/2000/svg" width="20" height="21" viewBox="0 0 20 21" fill="none">
  <path d="M6.9092 7.01523H6.4092H6.9092ZM9.4546 9.41523V9.91523V9.41523ZM9.56806 17.1152C9.8442 17.1152 10.0681 16.8914 10.0681 16.6152C10.0681 16.3391 9.8442 16.1152 9.56806 16.1152V17.1152ZM11.0895 11.9691C11.3629 12.0075 11.6157 11.8169 11.6541 11.5434C11.6925 11.2699 11.5019 11.0172 11.2284 10.9788L11.0895 11.9691ZM15 14.6152C15 14.8914 15.2239 15.1152 15.5 15.1152C15.7761 15.1152 16 14.8914 16 14.6152H15ZM12 14.6152C12 14.8914 12.2239 15.1152 12.5 15.1152C12.7761 15.1152 13 14.8914 13 14.6152H12ZM16.4239 16.9979L15.9619 16.8066L16.4239 16.9979ZM16.4239 15.2326L15.9619 15.4239L16.4239 15.2326ZM6.9092 7.01523H6.4092C6.4092 7.79417 6.73765 8.5348 7.31172 9.07608L7.65473 8.71229L7.99774 8.3485C7.61711 7.9896 7.4092 7.50934 7.4092 7.01523H6.9092ZM7.65473 8.71229L7.31172 9.07608C7.8848 9.61642 8.65609 9.91523 9.4546 9.91523V9.41523V8.91523C8.90295 8.91523 8.37938 8.70833 7.99774 8.3485L7.65473 8.71229ZM9.4546 9.41523V9.91523C10.2531 9.91523 11.0244 9.61642 11.5975 9.07608L11.2545 8.71229L10.9115 8.3485C10.5298 8.70833 10.0063 8.91523 9.4546 8.91523V9.41523ZM11.2545 8.71229L11.5975 9.07608C12.1716 8.5348 12.5 7.79417 12.5 7.01523H12H11.5C11.5 7.50934 11.2921 7.9896 10.9115 8.3485L11.2545 8.71229ZM12 7.01523H12.5C12.5 6.2363 12.1716 5.49567 11.5975 4.95439L11.2545 5.31818L10.9115 5.68197C11.2921 6.04086 11.5 6.52113 11.5 7.01523H12ZM11.2545 5.31818L11.5975 4.95439C11.0244 4.41405 10.2531 4.11523 9.4546 4.11523V4.61523V5.11523C10.0063 5.11523 10.5298 5.32213 10.9115 5.68197L11.2545 5.31818ZM9.4546 4.61523V4.11523C8.65609 4.11523 7.8848 4.41405 7.31172 4.95439L7.65473 5.31818L7.99774 5.68197C8.37938 5.32213 8.90295 5.11523 9.4546 5.11523V4.61523ZM7.65473 5.31818L7.31172 4.95439C6.73765 5.49567 6.4092 6.2363 6.4092 7.01523H6.9092H7.4092C7.4092 6.52113 7.61711 6.04086 7.99774 5.68197L7.65473 5.31818ZM9.56806 16.6152V16.1152C8.19033 16.1152 7.17717 16.0423 6.43265 15.916C5.6837 15.7889 5.24162 15.6134 4.97787 15.4334C4.52432 15.1239 4.5 14.7443 4.5 13.9902H4H3.5C3.5 14.6859 3.47568 15.6189 4.41414 16.2594C4.8464 16.5544 5.44834 16.7633 6.2654 16.9019C7.0869 17.0413 8.16175 17.1152 9.56806 17.1152V16.6152ZM4 13.9902H4.5C4.5 13.5723 4.87794 13.0418 5.84406 12.5863C6.77127 12.1492 8.08734 11.8652 9.56806 11.8652V11.3652V10.8652C7.97362 10.8652 6.50567 11.1689 5.41763 11.6818C4.36851 12.1764 3.5 12.9584 3.5 13.9902H4ZM9.56806 11.3652V11.8652C10.0981 11.8652 10.6089 11.9017 11.0895 11.9691L11.1589 11.4739L11.2284 10.9788C10.7008 10.9048 10.1436 10.8652 9.56806 10.8652V11.3652ZM15.5 13.1152H15V14.6152H15.5H16V13.1152H15.5ZM12.5 14.6152H13V13.1152H12.5H12V14.6152H12.5ZM14 11.6152V12.1152C14.5523 12.1152 15 12.5629 15 13.1152H15.5H16C16 12.0107 15.1046 11.1152 14 11.1152V11.6152ZM14 11.6152V11.1152C12.8954 11.1152 12 12.0107 12 13.1152H12.5H13C13 12.5629 13.4477 12.1152 14 12.1152V11.6152ZM13 14.6152V15.1152H15V14.6152V14.1152H13V14.6152ZM15 17.6152V17.1152H13V17.6152V18.1152H15V17.6152ZM13 17.6152V17.1152C12.7602 17.1152 12.6054 17.115 12.4869 17.1069C12.3729 17.0991 12.3295 17.0858 12.3087 17.0772L12.1173 17.5391L11.926 18.0011C12.0889 18.0686 12.2539 18.0933 12.4188 18.1046C12.5792 18.1155 12.7739 18.1152 13 18.1152V17.6152ZM11.5 16.1152H11C11 16.3414 10.9997 16.536 11.0107 16.6964C11.0219 16.8613 11.0467 17.0263 11.1142 17.1893L11.5761 16.9979L12.0381 16.8066C12.0294 16.7858 12.0161 16.7424 12.0084 16.6284C12.0003 16.5099 12 16.355 12 16.1152H11.5ZM12.1173 17.5391L12.3087 17.0772C12.1861 17.0264 12.0888 16.9291 12.0381 16.8066L11.5761 16.9979L11.1142 17.1893C11.2664 17.5568 11.5584 17.8488 11.926 18.0011L12.1173 17.5391ZM16.5 16.1152H16C16 16.355 15.9997 16.5099 15.9916 16.6284C15.9839 16.7424 15.9706 16.7858 15.9619 16.8066L16.4239 16.9979L16.8858 17.1893C16.9533 17.0263 16.9781 16.8613 16.9893 16.6964C17.0003 16.536 17 16.3414 17 16.1152H16.5ZM15 17.6152V18.1152C15.2261 18.1152 15.4208 18.1155 15.5812 18.1046C15.7461 18.0933 15.9111 18.0686 16.074 18.0011L15.8827 17.5391L15.6913 17.0772C15.6705 17.0858 15.6271 17.0991 15.5131 17.1069C15.3946 17.115 15.2398 17.1152 15 17.1152V17.6152ZM16.4239 16.9979L15.9619 16.8066C15.9112 16.9291 15.8139 17.0264 15.6913 17.0772L15.8827 17.5391L16.074 18.0011C16.4416 17.8488 16.7336 17.5568 16.8858 17.1893L16.4239 16.9979ZM15 14.6152V15.1152C15.2398 15.1152 15.3946 15.1155 15.5131 15.1236C15.6271 15.1314 15.6705 15.1447 15.6913 15.1533L15.8827 14.6914L16.074 14.2294C15.9111 14.1619 15.7461 14.1372 15.5812 14.1259C15.4208 14.115 15.2261 14.1152 15 14.1152V14.6152ZM16.5 16.1152H17C17 15.8891 17.0003 15.6945 16.9893 15.534C16.9781 15.3691 16.9533 15.2042 16.8858 15.0412L16.4239 15.2326L15.9619 15.4239C15.9706 15.4447 15.9839 15.4881 15.9916 15.6021C15.9997 15.7206 16 15.8754 16 16.1152H16.5ZM15.8827 14.6914L15.6913 15.1533C15.8139 15.204 15.9112 15.3014 15.9619 15.4239L16.4239 15.2326L16.8858 15.0412C16.7336 14.6737 16.4416 14.3817 16.074 14.2294L15.8827 14.6914ZM13 14.6152V14.1152C12.7739 14.1152 12.5792 14.115 12.4188 14.1259C12.2539 14.1372 12.0889 14.1619 11.926 14.2294L12.1173 14.6914L12.3087 15.1533C12.3295 15.1447 12.3729 15.1314 12.4869 15.1236C12.6054 15.1155 12.7602 15.1152 13 15.1152V14.6152ZM11.5 16.1152H12C12 15.8754 12.0003 15.7206 12.0084 15.6021C12.0161 15.4881 12.0294 15.4447 12.0381 15.4239L11.5761 15.2326L11.1142 15.0412C11.0467 15.2042 11.0219 15.3691 11.0107 15.534C10.9997 15.6945 11 15.8891 11 16.1152H11.5ZM12.1173 14.6914L11.926 14.2294C11.5584 14.3817 11.2664 14.6737 11.1142 15.0412L11.5761 15.2326L12.0381 15.4239C12.0888 15.3014 12.1861 15.204 12.3087 15.1533L12.1173 14.6914Z" fill="currentColor"/>
</svg>