<svg width="20" height="20" viewBox="0 0 20 20" fill="none" xmlns="http://www.w3.org/2000/svg">
  <path
    d="M11 14.5C10.7238 14.5 10.5 14.7239 10.5 15C10.5 15.2762 10.7239 15.5 11 15.5L11 14.5ZM16.5 14.9999L16.8536 15.3534C16.9473 15.2597 17 15.1325 17 14.9999C17 14.8673 16.9473 14.7401 16.8535 14.6463L16.5 14.9999ZM14.8535 12.6464C14.6583 12.4512 14.3417 12.4512 14.1464 12.6465C13.9512 12.8417 13.9512 13.1583 14.1465 13.3536L14.8535 12.6464ZM14.1464 16.6465C13.9512 16.8417 13.9512 17.1583 14.1465 17.3536C14.3417 17.5488 14.6583 17.5488 14.8536 17.3535L14.1464 16.6465ZM16 12C16 12.2761 16.2239 12.5 16.5 12.5C16.7761 12.5 17 12.2761 17 12H16ZM9.5 17.5C9.77614 17.5 10 17.2761 10 17C10 16.7239 9.77614 16.5 9.5 16.5V17.5ZM15.9784 8.03834L16.3448 7.69811L16.3448 7.69811L15.9784 8.03834ZM11.9485 3.69852L12.3149 3.3583V3.3583L11.9485 3.69852ZM11 15L11 15.5L16.5 15.4999L16.5 14.9999L16.5 14.4999L11 14.5L11 15ZM16.5 14.9999L16.8535 14.6463L14.8535 12.6464L14.5 13L14.1465 13.3536L16.1465 15.3535L16.5 14.9999ZM16.5 14.9999L16.1464 14.6464L14.1464 16.6465L14.5 17L14.8536 17.3535L16.8536 15.3534L16.5 14.9999ZM16.5 9.33991H16V12H16.5H17V9.33991H16.5ZM9.5 17V16.5H8.05V17V17.5H9.5V17ZM8.05 17V16.5C6.48271 16.5 5.51539 16.1606 4.92265 15.5223C4.32117 14.8745 4 13.808 4 12.1H3.5H3C3 13.892 3.32883 15.2755 4.18985 16.2027C5.05961 17.1394 6.36729 17.5 8.05 17.5V17ZM3.5 12.1H4V7.90007H3.5H3V12.1H3.5ZM3.5 7.90007H4C4 6.19207 4.32117 5.12557 4.92265 4.47783C5.51539 3.83949 6.48271 3.50011 8.05 3.50011V3.00011V2.50011C6.36729 2.50011 5.05961 2.86072 4.18985 3.79738C3.32883 4.72462 3 6.1081 3 7.90007H3.5ZM8.05 3.00011V3.50011H10.3035V3.00011V2.50011H8.05V3.00011ZM15.9784 8.03834L16.3448 7.69811L12.3149 3.3583L11.9485 3.69852L11.5821 4.03875L15.612 8.37856L15.9784 8.03834ZM10.3035 3.00011V3.50011C10.4559 3.50011 10.6058 3.51894 10.7494 3.55491L10.8709 3.06989L10.9924 2.58488C10.7696 2.52908 10.5382 2.50011 10.3035 2.50011V3.00011ZM10.8709 3.06989L10.7494 3.55491C11.0757 3.63664 11.3658 3.80577 11.5821 4.03875L11.9485 3.69852L12.3149 3.3583C11.96 2.97605 11.4965 2.71118 10.9924 2.58488L10.8709 3.06989ZM16.5 9.33991H17C17 9.2212 16.991 9.10329 16.9733 8.987L16.479 9.06211L15.9847 9.13722C15.9948 9.20409 16 9.27179 16 9.33991H16.5ZM16.479 9.06211L16.9733 8.987C16.9006 8.50825 16.6817 8.0609 16.3448 7.69811L15.9784 8.03834L15.612 8.37856C15.8166 8.59889 15.943 8.863 15.9847 9.13722L16.479 9.06211ZM16.5 9.06211V8.56211H16.479V9.06211V9.56211H16.5V9.06211ZM16.479 9.06211V8.56211H13.2163V9.06211V9.56211H16.479V9.06211ZM13.2163 9.06211V8.56211C12.3746 8.56211 11.9744 8.40172 11.7551 8.15873C11.5217 7.90028 11.3709 7.4188 11.3709 6.46406H10.8709H10.3709C10.3709 7.45785 10.5132 8.2754 11.0128 8.82884C11.5264 9.39774 12.2989 9.56211 13.2163 9.56211V9.06211ZM10.8709 6.46406H11.3709V3.06989H10.8709H10.3709V6.46406H10.8709ZM10.8709 3.06989H11.3709V3H10.8709H10.3709V3.06989H10.8709Z"
    fill="currentColor" />
</svg>