<svg xmlns="http://www.w3.org/2000/svg" width="21" height="20" viewBox="0 0 21 20" fill="none">
  <path d="M12.6664 5.72222L8.77756 8.44444M12.6664 14.2778L8.77756 11.5556M8.77756 10C8.77756 11.0739 7.907 11.9444 6.83312 11.9444C5.75923 11.9444 4.88867 11.0739 4.88867 10C4.88867 8.92612 5.75923 8.05556 6.83312 8.05556C7.907 8.05556 8.77756 8.92612 8.77756 10ZM16.5553 15.0556C16.5553 16.1294 15.6848 17 14.6109 17C13.537 17 12.6664 16.1294 12.6664 15.0556C12.6664 13.9817 13.537 13.1111 14.6109 13.1111C15.6848 13.1111 16.5553 13.9817 16.5553 15.0556ZM16.5553 4.94444C16.5553 6.01833 15.6848 6.88889 14.6109 6.88889C13.537 6.88889 12.6664 6.01833 12.6664 4.94444C12.6664 3.87056 13.537 3 14.6109 3C15.6848 3 16.5553 3.87056 16.5553 4.94444Z" stroke="currentColor" stroke-linecap="round"/>
</svg>