<svg width="64" height="64" viewBox="0 0 64 64" fill="none" xmlns="http://www.w3.org/2000/svg">
  <path
    d="M7 32H5.5H7ZM57 32H55.5H57ZM32 7.00003V5.50003V7.00003ZM24.3107 32.1894C23.7249 31.6036 22.7751 31.6036 22.1893 32.1894C21.6036 32.7752 21.6036 33.7249 22.1893 34.3107L24.3107 32.1894ZM28.25 38.25L27.1893 39.3107C27.7751 39.8965 28.7249 39.8965 29.3107 39.3107L28.25 38.25ZM41.8107 26.8107C42.3964 26.2249 42.3964 25.2752 41.8107 24.6894C41.2249 24.1036 40.2751 24.1036 39.6893 24.6894L41.8107 26.8107ZM7 32H5.5C5.5 39.0283 8.29196 45.7686 13.2617 50.7384L14.3223 49.6777L15.383 48.617C10.9759 44.2099 8.5 38.2326 8.5 32H7ZM14.3223 49.6777L13.2617 50.7384C18.2314 55.7081 24.9718 58.5 32 58.5V57V55.5C25.7674 55.5 19.7901 53.0241 15.383 48.617L14.3223 49.6777ZM32 57V58.5C39.0282 58.5 45.7686 55.7081 50.7383 50.7384L49.6777 49.6777L48.617 48.617C44.2099 53.0241 38.2326 55.5 32 55.5V57ZM49.6777 49.6777L50.7383 50.7384C55.708 45.7686 58.5 39.0283 58.5 32H57H55.5C55.5 38.2326 53.0241 44.2099 48.617 48.617L49.6777 49.6777ZM57 32H58.5C58.5 24.9718 55.708 18.2314 50.7383 13.2617L49.6777 14.3224L48.617 15.383C53.0241 19.7901 55.5 25.7674 55.5 32H57ZM49.6777 14.3224L50.7383 13.2617C45.7686 8.29199 39.0282 5.50003 32 5.50003V7.00003V8.50003C38.2326 8.50003 44.2099 10.9759 48.617 15.383L49.6777 14.3224ZM32 7.00003V5.50003C24.9718 5.50003 18.2314 8.29199 13.2617 13.2617L14.3223 14.3224L15.383 15.383C19.7901 10.9759 25.7674 8.50003 32 8.50003V7.00003ZM14.3223 14.3224L13.2617 13.2617C8.29196 18.2314 5.5 24.9718 5.5 32H7H8.5C8.5 25.7674 10.9759 19.7901 15.383 15.383L14.3223 14.3224ZM23.25 33.25L22.1893 34.3107L27.1893 39.3107L28.25 38.25L29.3107 37.1894L24.3107 32.1894L23.25 33.25ZM28.25 38.25L29.3107 39.3107L41.8107 26.8107L40.75 25.75L39.6893 24.6894L27.1893 37.1894L28.25 38.25Z"
    fill="var(--icon-success-thick)" />
</svg>