<svg xmlns="http://www.w3.org/2000/svg" width="21" height="20" viewBox="0 0 21 20" fill="none">
  <path d="M14.5408 8.40914C15.5952 8.40914 16.4499 7.69686 16.4499 6.81823C16.4499 5.93959 15.5952 5.22732 14.5408 5.22732M6.90447 8.40914C5.85012 8.40914 4.99538 7.69686 4.99538 6.81823C4.99538 5.93959 5.85012 5.22732 6.90447 5.22732M15.8136 14.7728C16.9299 14.528 17.7227 13.908 17.7227 13.1819C17.7227 12.4557 16.9299 11.8358 15.8136 11.591M5.63175 14.7728C4.51541 14.528 3.72266 13.908 3.72266 13.1819C3.72266 12.4557 4.51541 11.8358 5.63175 11.591M8.1772 6.50004C8.1772 7.17514 8.44538 7.82259 8.92275 8.29995C9.40011 8.77732 10.0476 9.0455 10.7227 9.0455C11.3978 9.0455 12.0452 8.77732 12.5226 8.29995C12.9999 7.82259 13.2681 7.17514 13.2681 6.50004C13.2681 5.82495 12.9999 5.1775 12.5226 4.70014C12.0452 4.22277 11.3978 3.95459 10.7227 3.95459C10.0476 3.95459 9.40011 4.22277 8.92275 4.70014C8.44538 5.1775 8.1772 5.82495 8.1772 6.50004ZM6.90447 13.5C6.90447 14.1751 7.30675 14.8226 8.02279 15.3C8.73884 15.7773 9.71001 16.0455 10.7227 16.0455C11.7353 16.0455 12.7065 15.7773 13.4225 15.3C14.1386 14.8226 14.5408 14.1751 14.5408 13.5C14.5408 12.8249 14.1386 12.1775 13.4225 11.7001C12.7065 11.2228 11.7353 10.9546 10.7227 10.9546C9.71001 10.9546 8.73884 11.2228 8.02279 11.7001C7.30675 12.1775 6.90447 12.8249 6.90447 13.5Z" stroke="currentColor" stroke-linecap="round"/>
</svg>