<svg width="20" height="20" viewBox="0 0 20 20" fill="none" xmlns="http://www.w3.org/2000/svg">
<path d="M3.17158 3.17158C2 4.34314 2 6.22876 2 10C2 13.7712 2 15.6569 3.17158 16.8284C4.34314 18 6.22875 18 9.99998 18H10H10C13.7712 18 15.6569 18 16.8284 16.8284C18 15.6569 18 13.7712 18 10V10V9.99998C18 6.22875 18 4.34314 16.8284 3.17158C15.6569 2 13.7712 2 10 2C6.22876 2 4.34314 2 3.17158 3.17158Z" stroke="currentColor" stroke-linecap="round"/>
<path d="M6.5 13.5L7.66667 11.1667M7.66667 11.1667L10 6.5L12.3333 11.1667M7.66667 11.1667H12.3333M12.3333 11.1667L13.5 13.5" stroke="currentColor" stroke-linecap="round" stroke-linejoin="round"/>
</svg>
