<svg width="20" height="20" viewBox="0 0 20 20" fill="none" xmlns="http://www.w3.org/2000/svg">
<path d="M2 10C2 6.22876 2 4.34314 3.17158 3.17158C4.34314 2 6.22876 2 10 2C13.7712 2 15.6569 2 16.8284 3.17158C18 4.34314 18 6.22876 18 10C18 13.7712 18 15.6569 16.8284 16.8284C15.6569 18 13.7712 18 10 18C6.22876 18 4.34314 18 3.17158 16.8284C2 15.6569 2 13.7712 2 10Z" stroke="currentColor" stroke-linecap="round"/>
<path d="M10 7.33333C10.1999 8.691 11.2411 9.72893 12.5333 9.86667M10.6329 6.69355L6.52678 10.8816C6.37174 11.0406 6.2217 11.3539 6.19169 11.5707L6.00664 13.1322C5.94162 13.6961 6.36173 14.0816 6.94189 13.9852L8.55233 13.7202C8.77739 13.6816 9.09248 13.5226 9.24752 13.3587L13.3536 9.17069C14.0638 8.44779 14.3839 7.62368 13.2786 6.61644C12.1783 5.61883 11.3431 5.97064 10.6329 6.69355Z" stroke="currentColor" stroke-miterlimit="10" stroke-linecap="round" stroke-linejoin="round"/>
</svg>
