<svg width="14" height="12" viewBox="0 0 14 12" fill="none" xmlns="http://www.w3.org/2000/svg">
<path d="M3.00016 12C2.81127 12 2.65294 11.9361 2.52516 11.8083C2.39738 11.6806 2.3335 11.5222 2.3335 11.3333C2.3335 11.1444 2.39738 10.9861 2.52516 10.8583C2.65294 10.7306 2.81127 10.6667 3.00016 10.6667H11.0002C11.1891 10.6667 11.3474 10.7306 11.4752 10.8583C11.6029 10.9861 11.6668 11.1444 11.6668 11.3333C11.6668 11.5222 11.6029 11.6806 11.4752 11.8083C11.3474 11.9361 11.1891 12 11.0002 12H3.00016ZM3.46683 9.66667C3.14461 9.66667 2.8585 9.56111 2.6085 9.35C2.3585 9.13889 2.20572 8.87222 2.15016 8.55L1.4835 4.31667C1.46127 4.31667 1.43627 4.31944 1.4085 4.325C1.38072 4.33056 1.35572 4.33333 1.3335 4.33333C1.05572 4.33333 0.819607 4.23611 0.625163 4.04167C0.430718 3.84722 0.333496 3.61111 0.333496 3.33333C0.333496 3.05556 0.430718 2.81944 0.625163 2.625C0.819607 2.43056 1.05572 2.33333 1.3335 2.33333C1.61127 2.33333 1.84738 2.43056 2.04183 2.625C2.23627 2.81944 2.3335 3.05556 2.3335 3.33333C2.3335 3.41111 2.32516 3.48333 2.3085 3.55C2.29183 3.61667 2.27238 3.67778 2.25016 3.73333L4.3335 4.66667L6.41683 1.81667C6.29461 1.72778 6.19461 1.61111 6.11683 1.46667C6.03905 1.32222 6.00016 1.16667 6.00016 1C6.00016 0.722222 6.09738 0.486111 6.29183 0.291667C6.48627 0.0972222 6.72238 0 7.00016 0C7.27794 0 7.51405 0.0972222 7.7085 0.291667C7.90294 0.486111 8.00016 0.722222 8.00016 1C8.00016 1.16667 7.96127 1.32222 7.8835 1.46667C7.80572 1.61111 7.70572 1.72778 7.5835 1.81667L9.66683 4.66667L11.7502 3.73333C11.7279 3.67778 11.7085 3.61667 11.6918 3.55C11.6752 3.48333 11.6668 3.41111 11.6668 3.33333C11.6668 3.05556 11.7641 2.81944 11.9585 2.625C12.1529 2.43056 12.3891 2.33333 12.6668 2.33333C12.9446 2.33333 13.1807 2.43056 13.3752 2.625C13.5696 2.81944 13.6668 3.05556 13.6668 3.33333C13.6668 3.61111 13.5696 3.84722 13.3752 4.04167C13.1807 4.23611 12.9446 4.33333 12.6668 4.33333C12.6446 4.33333 12.6196 4.33056 12.5918 4.325C12.5641 4.31944 12.5391 4.31667 12.5168 4.31667L11.8502 8.55C11.7946 8.87222 11.6418 9.13889 11.3918 9.35C11.1418 9.56111 10.8557 9.66667 10.5335 9.66667H3.46683Z" fill="url(#paint0_linear_3513_15489)"/>
<defs>
<linearGradient id="paint0_linear_3513_15489" x1="2" y1="11.6667" x2="14.1114" y2="6.31038" gradientUnits="userSpaceOnUse">
<stop stop-color="#8032FF"/>
<stop offset="0.765" stop-color="#FB3DFF"/>
</linearGradient>
</defs>
</svg>
