<svg xmlns="http://www.w3.org/2000/svg" width="64" height="65" viewBox="0 0 64 65" fill="none">
  <path d="M32 22.5V35M15.2793 29.4038C22.5752 16.4679 26.2231 10 32 10C37.7768 10 41.4247 16.4679 48.7207 29.4038L49.6298 31.0158C55.6928 41.7653 58.7242 47.14 55.9842 51.07C53.2445 55 46.466 55 32.9093 55H31.0907C17.5339 55 10.7554 55 8.01565 51.07C5.27585 47.14 8.30728 41.7653 14.3701 31.0158L15.2793 29.4038Z" stroke="var(--icon-warning-thick)" stroke-width="3" stroke-linecap="round"/>
  <path d="M29.5 42.5C29.5 43.1631 29.7634 43.799 30.2322 44.2678C30.7011 44.7366 31.337 45 32 45C32.663 45 33.2989 44.7366 33.7678 44.2678C34.2366 43.799 34.5 43.1631 34.5 42.5C34.5 41.837 34.2366 41.2011 33.7678 40.7323C33.2989 40.2634 32.663 40 32 40C31.337 40 30.7011 40.2634 30.2322 40.7323C29.7634 41.2011 29.5 41.837 29.5 42.5Z" fill="var(--icon-warning-thick)"/>
</svg>